<?xml version="1.0" encoding="UTF-8" standalone="no"?>
<!DOCTYPE svg PUBLIC "-//W3C//DTD SVG 1.1//EN"
 "http://www.w3.org/Graphics/SVG/1.1/DTD/svg11.dtd">
<!-- Generated by graphviz version 2.38.0 (20140413.2041)
 -->
<!-- Title: controllers_diagram Pages: 1 -->
<svg width="706pt" height="629pt"
 viewBox="0.00 0.00 705.88 629.00" xmlns="http://www.w3.org/2000/svg" xmlns:xlink="http://www.w3.org/1999/xlink">
<g id="graph0" class="graph" transform="scale(1 1) rotate(0) translate(292.162 385.5)">
<title>controllers_diagram</title>
<polygon fill="none" stroke="none" points="-292.162,243.5 -292.162,-385.5 413.714,-385.5 413.714,243.5 -292.162,243.5"/>
<!-- _diagram_info -->
<g id="node1" class="node"><title>_diagram_info</title>
<text text-anchor="start" x="87.5503" y="132.9" font-family="Times,serif" font-size="13.00">Controllers diagram</text>
<text text-anchor="start" x="87.5503" y="145.9" font-family="Times,serif" font-size="13.00">Date: Jul 31 2016 &#45; 18:35</text>
<text text-anchor="start" x="87.5503" y="158.9" font-family="Times,serif" font-size="13.00">Migration version: 20160731011201</text>
<text text-anchor="start" x="87.5503" y="171.9" font-family="Times,serif" font-size="13.00">Generated by RailRoady 1.5.1</text>
<text text-anchor="start" x="87.5503" y="184.9" font-family="Times,serif" font-size="13.00">http://railroady.prestonlee.com</text>
</g>
<!-- ApplicationController -->
<g id="node2" class="node"><title>ApplicationController</title>
<path fill="none" stroke="black" d="M-244.148,95C-244.148,95 -123.852,95 -123.852,95 -117.852,95 -111.852,89 -111.852,83 -111.852,83 -111.852,17 -111.852,17 -111.852,11 -117.852,5 -123.852,5 -123.852,5 -244.148,5 -244.148,5 -250.148,5 -256.148,11 -256.148,17 -256.148,17 -256.148,83 -256.148,83 -256.148,89 -250.148,95 -244.148,95"/>
<text text-anchor="middle" x="-184" y="20.2" font-family="Times,serif" font-size="14.00">ApplicationController</text>
<polyline fill="none" stroke="black" points="-256.148,27 -111.852,27 "/>
<text text-anchor="start" x="-248.148" y="42.2" font-family="Times,serif" font-size="14.00">after_sign_in_path_for</text>
<polyline fill="none" stroke="black" points="-256.148,49 -111.852,49 "/>
<polyline fill="none" stroke="black" points="-256.148,73 -111.852,73 "/>
<text text-anchor="start" x="-248.148" y="88.2" font-family="Times,serif" font-size="14.00">_layout</text>
</g>
<!-- PokeDesksController -->
<g id="node3" class="node"><title>PokeDesksController</title>
<path fill="none" stroke="black" d="M-67.8828,-129C-67.8828,-129 43.8828,-129 43.8828,-129 49.8828,-129 55.8828,-135 55.8828,-141 55.8828,-141 55.8828,-263 55.8828,-263 55.8828,-269 49.8828,-275 43.8828,-275 43.8828,-275 -67.8828,-275 -67.8828,-275 -73.8828,-275 -79.8828,-269 -79.8828,-263 -79.8828,-263 -79.8828,-141 -79.8828,-141 -79.8828,-135 -73.8828,-129 -67.8828,-129"/>
<text text-anchor="middle" x="-12" y="-259.8" font-family="Times,serif" font-size="14.00">PokeDesksController</text>
<polyline fill="none" stroke="black" points="-79.8828,-253 55.8828,-253 "/>
<text text-anchor="start" x="-71.8828" y="-237.8" font-family="Times,serif" font-size="14.00">create</text>
<text text-anchor="start" x="-71.8828" y="-223.8" font-family="Times,serif" font-size="14.00">index</text>
<text text-anchor="start" x="-71.8828" y="-209.8" font-family="Times,serif" font-size="14.00">levelup</text>
<polyline fill="none" stroke="black" points="-79.8828,-203 55.8828,-203 "/>
<polyline fill="none" stroke="black" points="-79.8828,-179 55.8828,-179 "/>
<text text-anchor="start" x="-71.8828" y="-163.8" font-family="Times,serif" font-size="14.00">_layout</text>
<text text-anchor="start" x="-71.8828" y="-149.8" font-family="Times,serif" font-size="14.00">poke_desk_params</text>
<text text-anchor="start" x="-71.8828" y="-135.8" font-family="Times,serif" font-size="14.00">set_poke_desk</text>
</g>
<!-- PokemonsController -->
<g id="node4" class="node"><title>PokemonsController</title>
<path fill="none" stroke="black" d="M-67.9414,111C-67.9414,111 39.9414,111 39.9414,111 45.9414,111 51.9414,105 51.9414,99 51.9414,99 51.9414,-79 51.9414,-79 51.9414,-85 45.9414,-91 39.9414,-91 39.9414,-91 -67.9414,-91 -67.9414,-91 -73.9414,-91 -79.9414,-85 -79.9414,-79 -79.9414,-79 -79.9414,99 -79.9414,99 -79.9414,105 -73.9414,111 -67.9414,111"/>
<text text-anchor="middle" x="-14" y="-75.8" font-family="Times,serif" font-size="14.00">PokemonsController</text>
<polyline fill="none" stroke="black" points="-79.9414,-69 51.9414,-69 "/>
<text text-anchor="start" x="-71.9414" y="-53.8" font-family="Times,serif" font-size="14.00">create</text>
<text text-anchor="start" x="-71.9414" y="-39.8" font-family="Times,serif" font-size="14.00">destroy</text>
<text text-anchor="start" x="-71.9414" y="-25.8" font-family="Times,serif" font-size="14.00">edit</text>
<text text-anchor="start" x="-71.9414" y="-11.8" font-family="Times,serif" font-size="14.00">index</text>
<text text-anchor="start" x="-71.9414" y="2.2" font-family="Times,serif" font-size="14.00">new</text>
<text text-anchor="start" x="-71.9414" y="16.2" font-family="Times,serif" font-size="14.00">show</text>
<text text-anchor="start" x="-71.9414" y="30.2" font-family="Times,serif" font-size="14.00">update</text>
<polyline fill="none" stroke="black" points="-79.9414,37 51.9414,37 "/>
<polyline fill="none" stroke="black" points="-79.9414,61 51.9414,61 "/>
<text text-anchor="start" x="-71.9414" y="76.2" font-family="Times,serif" font-size="14.00">_layout</text>
<text text-anchor="start" x="-71.9414" y="90.2" font-family="Times,serif" font-size="14.00">pokemon_params</text>
<text text-anchor="start" x="-71.9414" y="104.2" font-family="Times,serif" font-size="14.00">set_pokemon</text>
</g>
<!-- SightingsController -->
<g id="node5" class="node"><title>SightingsController</title>
<path fill="none" stroke="black" d="M187.776,-177C187.776,-177 290.224,-177 290.224,-177 296.224,-177 302.224,-183 302.224,-189 302.224,-189 302.224,-339 302.224,-339 302.224,-345 296.224,-351 290.224,-351 290.224,-351 187.776,-351 187.776,-351 181.776,-351 175.776,-345 175.776,-339 175.776,-339 175.776,-189 175.776,-189 175.776,-183 181.776,-177 187.776,-177"/>
<text text-anchor="middle" x="239" y="-335.8" font-family="Times,serif" font-size="14.00">SightingsController</text>
<polyline fill="none" stroke="black" points="175.776,-329 302.224,-329 "/>
<text text-anchor="start" x="183.776" y="-313.8" font-family="Times,serif" font-size="14.00">create</text>
<text text-anchor="start" x="183.776" y="-299.8" font-family="Times,serif" font-size="14.00">destroy</text>
<text text-anchor="start" x="183.776" y="-285.8" font-family="Times,serif" font-size="14.00">edit</text>
<text text-anchor="start" x="183.776" y="-271.8" font-family="Times,serif" font-size="14.00">new</text>
<text text-anchor="start" x="183.776" y="-257.8" font-family="Times,serif" font-size="14.00">update</text>
<polyline fill="none" stroke="black" points="175.776,-251 302.224,-251 "/>
<polyline fill="none" stroke="black" points="175.776,-227 302.224,-227 "/>
<text text-anchor="start" x="183.776" y="-211.8" font-family="Times,serif" font-size="14.00">_layout</text>
<text text-anchor="start" x="183.776" y="-197.8" font-family="Times,serif" font-size="14.00">set_sighting</text>
<text text-anchor="start" x="183.776" y="-183.8" font-family="Times,serif" font-size="14.00">sighting_params</text>
</g>
<!-- Users::ConfirmationsController -->
<g id="node6" class="node"><title>Users::ConfirmationsController</title>
<path fill="none" stroke="black" d="M92.3379,-49C92.3379,-49 261.662,-49 261.662,-49 267.662,-49 273.662,-55 273.662,-61 273.662,-61 273.662,-129 273.662,-129 273.662,-135 267.662,-141 261.662,-141 261.662,-141 92.3379,-141 92.3379,-141 86.3379,-141 80.3379,-135 80.3379,-129 80.3379,-129 80.3379,-61 80.3379,-61 80.3379,-55 86.3379,-49 92.3379,-49"/>
<text text-anchor="middle" x="177" y="-125.8" font-family="Times,serif" font-size="14.00">Users::ConfirmationsController</text>
<polyline fill="none" stroke="black" points="80.3379,-119 273.662,-119 "/>
<polyline fill="none" stroke="black" points="80.3379,-95 273.662,-95 "/>
<polyline fill="none" stroke="black" points="80.3379,-71 273.662,-71 "/>
<text text-anchor="start" x="88.3379" y="-55.8" font-family="Times,serif" font-size="14.00">_layout</text>
</g>
<!-- Users::OmniauthCallbacksController -->
<g id="node7" class="node"><title>Users::OmniauthCallbacksController</title>
<path fill="none" stroke="black" d="M91.7964,79C91.7964,79 292.204,79 292.204,79 298.204,79 304.204,73 304.204,67 304.204,67 304.204,-1 304.204,-1 304.204,-7 298.204,-13 292.204,-13 292.204,-13 91.7964,-13 91.7964,-13 85.7964,-13 79.7964,-7 79.7964,-1 79.7964,-1 79.7964,67 79.7964,67 79.7964,73 85.7964,79 91.7964,79"/>
<text text-anchor="middle" x="192" y="2.2" font-family="Times,serif" font-size="14.00">Users::OmniauthCallbacksController</text>
<polyline fill="none" stroke="black" points="79.7964,9 304.204,9 "/>
<polyline fill="none" stroke="black" points="79.7964,33 304.204,33 "/>
<polyline fill="none" stroke="black" points="79.7964,57 304.204,57 "/>
<text text-anchor="start" x="87.7964" y="72.2" font-family="Times,serif" font-size="14.00">_layout</text>
</g>
<!-- Users::PasswordsController -->
<g id="node8" class="node"><title>Users::PasswordsController</title>
<path fill="none" stroke="black" d="M-276.162,-289C-276.162,-289 -127.838,-289 -127.838,-289 -121.838,-289 -115.838,-295 -115.838,-301 -115.838,-301 -115.838,-369 -115.838,-369 -115.838,-375 -121.838,-381 -127.838,-381 -127.838,-381 -276.162,-381 -276.162,-381 -282.162,-381 -288.162,-375 -288.162,-369 -288.162,-369 -288.162,-301 -288.162,-301 -288.162,-295 -282.162,-289 -276.162,-289"/>
<text text-anchor="middle" x="-202" y="-365.8" font-family="Times,serif" font-size="14.00">Users::PasswordsController</text>
<polyline fill="none" stroke="black" points="-288.162,-359 -115.838,-359 "/>
<polyline fill="none" stroke="black" points="-288.162,-335 -115.838,-335 "/>
<polyline fill="none" stroke="black" points="-288.162,-311 -115.838,-311 "/>
<text text-anchor="start" x="-280.162" y="-295.8" font-family="Times,serif" font-size="14.00">_layout</text>
</g>
<!-- Users::RegistrationsController -->
<g id="node9" class="node"><title>Users::RegistrationsController</title>
<path fill="none" stroke="black" d="M-227.545,239C-227.545,239 -64.4551,239 -64.4551,239 -58.4551,239 -52.4551,233 -52.4551,227 -52.4551,227 -52.4551,161 -52.4551,161 -52.4551,155 -58.4551,149 -64.4551,149 -64.4551,149 -227.545,149 -227.545,149 -233.545,149 -239.545,155 -239.545,161 -239.545,161 -239.545,227 -239.545,227 -239.545,233 -233.545,239 -227.545,239"/>
<text text-anchor="middle" x="-146" y="164.2" font-family="Times,serif" font-size="14.00">Users::RegistrationsController</text>
<polyline fill="none" stroke="black" points="-239.545,171 -52.4551,171 "/>
<text text-anchor="start" x="-231.545" y="186.2" font-family="Times,serif" font-size="14.00">configure_sign_up_params</text>
<polyline fill="none" stroke="black" points="-239.545,193 -52.4551,193 "/>
<polyline fill="none" stroke="black" points="-239.545,217 -52.4551,217 "/>
<text text-anchor="start" x="-231.545" y="232.2" font-family="Times,serif" font-size="14.00">_layout</text>
</g>
<!-- Users::SessionsController -->
<g id="node10" class="node"><title>Users::SessionsController</title>
<path fill="none" stroke="black" d="M-259.721,-161C-259.721,-161 -122.279,-161 -122.279,-161 -116.279,-161 -110.279,-167 -110.279,-173 -110.279,-173 -110.279,-241 -110.279,-241 -110.279,-247 -116.279,-253 -122.279,-253 -122.279,-253 -259.721,-253 -259.721,-253 -265.721,-253 -271.721,-247 -271.721,-241 -271.721,-241 -271.721,-173 -271.721,-173 -271.721,-167 -265.721,-161 -259.721,-161"/>
<text text-anchor="middle" x="-191" y="-237.8" font-family="Times,serif" font-size="14.00">Users::SessionsController</text>
<polyline fill="none" stroke="black" points="-271.721,-231 -110.279,-231 "/>
<polyline fill="none" stroke="black" points="-271.721,-207 -110.279,-207 "/>
<polyline fill="none" stroke="black" points="-271.721,-183 -110.279,-183 "/>
<text text-anchor="start" x="-263.721" y="-167.8" font-family="Times,serif" font-size="14.00">_layout</text>
</g>
<!-- Users::UnlocksController -->
<g id="node11" class="node"><title>Users::UnlocksController</title>
<path fill="none" stroke="black" d="M-259.935,-33C-259.935,-33 -124.065,-33 -124.065,-33 -118.065,-33 -112.065,-39 -112.065,-45 -112.065,-45 -112.065,-113 -112.065,-113 -112.065,-119 -118.065,-125 -124.065,-125 -124.065,-125 -259.935,-125 -259.935,-125 -265.935,-125 -271.935,-119 -271.935,-113 -271.935,-113 -271.935,-45 -271.935,-45 -271.935,-39 -265.935,-33 -259.935,-33"/>
<text text-anchor="middle" x="-192" y="-109.8" font-family="Times,serif" font-size="14.00">Users::UnlocksController</text>
<polyline fill="none" stroke="black" points="-271.935,-103 -112.065,-103 "/>
<polyline fill="none" stroke="black" points="-271.935,-79 -112.065,-79 "/>
<polyline fill="none" stroke="black" points="-271.935,-55 -112.065,-55 "/>
<text text-anchor="start" x="-263.935" y="-39.8" font-family="Times,serif" font-size="14.00">_layout</text>
</g>
<!-- UsersController -->
<g id="node12" class="node"><title>UsersController</title>
<path fill="none" stroke="black" d="M316.286,-49C316.286,-49 397.714,-49 397.714,-49 403.714,-49 409.714,-55 409.714,-61 409.714,-61 409.714,-127 409.714,-127 409.714,-133 403.714,-139 397.714,-139 397.714,-139 316.286,-139 316.286,-139 310.286,-139 304.286,-133 304.286,-127 304.286,-127 304.286,-61 304.286,-61 304.286,-55 310.286,-49 316.286,-49"/>
<text text-anchor="middle" x="357" y="-123.8" font-family="Times,serif" font-size="14.00">UsersController</text>
<polyline fill="none" stroke="black" points="304.286,-117 409.714,-117 "/>
<text text-anchor="start" x="312.286" y="-101.8" font-family="Times,serif" font-size="14.00">index</text>
<polyline fill="none" stroke="black" points="304.286,-95 409.714,-95 "/>
<polyline fill="none" stroke="black" points="304.286,-71 409.714,-71 "/>
<text text-anchor="start" x="312.286" y="-55.8" font-family="Times,serif" font-size="14.00">_layout</text>
</g>
</g>
</svg>
