<?xml version="1.0" encoding="UTF-8" standalone="no"?>
<!DOCTYPE svg PUBLIC "-//W3C//DTD SVG 1.1//EN"
 "http://www.w3.org/Graphics/SVG/1.1/DTD/svg11.dtd">
<!-- Generated by graphviz version 2.38.0 (20140413.2041)
 -->
<!-- Title: models_diagram Pages: 1 -->
<svg width="817pt" height="537pt"
 viewBox="0.00 0.00 817.08 537.00" xmlns="http://www.w3.org/2000/svg" xmlns:xlink="http://www.w3.org/1999/xlink">
<g id="graph0" class="graph" transform="scale(1 1) rotate(0) translate(4 533)">
<title>models_diagram</title>
<polygon fill="none" stroke="none" points="-4,4 -4,-533 813.084,-533 813.084,4 -4,4"/>
<!-- _diagram_info -->
<g id="node1" class="node"><title>_diagram_info</title>
<text text-anchor="start" x="8" y="-500.6" font-family="Times,serif" font-size="13.00">Models diagram</text>
<text text-anchor="start" x="8" y="-487.6" font-family="Times,serif" font-size="13.00">Date: Jul 31 2016 &#45; 18:34</text>
<text text-anchor="start" x="8" y="-474.6" font-family="Times,serif" font-size="13.00">Migration version: 20160731011201</text>
<text text-anchor="start" x="8" y="-461.6" font-family="Times,serif" font-size="13.00">Generated by RailRoady 1.5.1</text>
<text text-anchor="start" x="8" y="-448.6" font-family="Times,serif" font-size="13.00">http://railroady.prestonlee.com</text>
</g>
<!-- PokeDesk -->
<g id="node2" class="node"><title>PokeDesk</title>
<path fill="none" stroke="black" d="M310.587,-0.5C310.587,-0.5 534.312,-0.5 534.312,-0.5 540.312,-0.5 546.312,-6.5 546.312,-12.5 546.312,-12.5 546.312,-102.5 546.312,-102.5 546.312,-108.5 540.312,-114.5 534.312,-114.5 534.312,-114.5 310.587,-114.5 310.587,-114.5 304.587,-114.5 298.587,-108.5 298.587,-102.5 298.587,-102.5 298.587,-12.5 298.587,-12.5 298.587,-6.5 304.587,-0.5 310.587,-0.5"/>
<text text-anchor="middle" x="422.45" y="-99.3" font-family="Times,serif" font-size="14.00">PokeDesk</text>
<polyline fill="none" stroke="black" points="298.587,-92.5 546.312,-92.5 "/>
<text text-anchor="start" x="306.587" y="-77.3" font-family="Times,serif" font-size="14.00">id :integer</text>
<text text-anchor="start" x="306.587" y="-63.3" font-family="Times,serif" font-size="14.00">user_id :integer</text>
<text text-anchor="start" x="306.587" y="-49.3" font-family="Times,serif" font-size="14.00">pokemon_id :integer</text>
<text text-anchor="start" x="306.587" y="-35.3" font-family="Times,serif" font-size="14.00">level :integer</text>
<text text-anchor="start" x="306.587" y="-21.3" font-family="Times,serif" font-size="14.00">created_at :timestamp without time zone</text>
<text text-anchor="start" x="306.587" y="-7.3" font-family="Times,serif" font-size="14.00">updated_at :timestamp without time zone</text>
</g>
<!-- Pokemon -->
<g id="node3" class="node"><title>Pokemon</title>
<path fill="none" stroke="black" d="M236.587,-428.5C236.587,-428.5 460.312,-428.5 460.312,-428.5 466.312,-428.5 472.312,-434.5 472.312,-440.5 472.312,-440.5 472.312,-516.5 472.312,-516.5 472.312,-522.5 466.312,-528.5 460.312,-528.5 460.312,-528.5 236.587,-528.5 236.587,-528.5 230.587,-528.5 224.587,-522.5 224.587,-516.5 224.587,-516.5 224.587,-440.5 224.587,-440.5 224.587,-434.5 230.587,-428.5 236.587,-428.5"/>
<text text-anchor="middle" x="348.45" y="-513.3" font-family="Times,serif" font-size="14.00">Pokemon</text>
<polyline fill="none" stroke="black" points="224.587,-506.5 472.312,-506.5 "/>
<text text-anchor="start" x="232.587" y="-491.3" font-family="Times,serif" font-size="14.00">id :integer</text>
<text text-anchor="start" x="232.587" y="-477.3" font-family="Times,serif" font-size="14.00">name :character varying</text>
<text text-anchor="start" x="232.587" y="-463.3" font-family="Times,serif" font-size="14.00">description :text</text>
<text text-anchor="start" x="232.587" y="-449.3" font-family="Times,serif" font-size="14.00">created_at :timestamp without time zone</text>
<text text-anchor="start" x="232.587" y="-435.3" font-family="Times,serif" font-size="14.00">updated_at :timestamp without time zone</text>
</g>
<!-- Pokemon&#45;&gt;PokeDesk -->
<g id="edge1" class="edge"><title>Pokemon&#45;&gt;PokeDesk</title>
<path fill="none" stroke="#799a43" d="M240.247,-422.811C230.397,-413.812 221.768,-403.572 215.45,-392 164.123,-297.987 157.174,-240.871 215.45,-151 232.842,-124.179 260.031,-105.066 289.05,-91.4697"/>
<ellipse fill="none" stroke="#799a43" cx="243.506" cy="-425.636" rx="4.00002" ry="4.00002"/>
<polygon fill="#799a43" stroke="#799a43" points="289.393,-91.3172 300.359,-91.3567 293.96,-89.2818 298.527,-87.2464 298.527,-87.2464 298.527,-87.2464 293.96,-89.2818 296.695,-83.1361 289.393,-91.3172 289.393,-91.3172"/>
</g>
<!-- Sighting -->
<g id="node4" class="node"><title>Sighting</title>
<path fill="none" stroke="black" d="M236.587,-214.5C236.587,-214.5 460.312,-214.5 460.312,-214.5 466.312,-214.5 472.312,-220.5 472.312,-226.5 472.312,-226.5 472.312,-316.5 472.312,-316.5 472.312,-322.5 466.312,-328.5 460.312,-328.5 460.312,-328.5 236.587,-328.5 236.587,-328.5 230.587,-328.5 224.587,-322.5 224.587,-316.5 224.587,-316.5 224.587,-226.5 224.587,-226.5 224.587,-220.5 230.587,-214.5 236.587,-214.5"/>
<text text-anchor="middle" x="348.45" y="-313.3" font-family="Times,serif" font-size="14.00">Sighting</text>
<polyline fill="none" stroke="black" points="224.587,-306.5 472.312,-306.5 "/>
<text text-anchor="start" x="232.587" y="-291.3" font-family="Times,serif" font-size="14.00">id :integer</text>
<text text-anchor="start" x="232.587" y="-277.3" font-family="Times,serif" font-size="14.00">information :text</text>
<text text-anchor="start" x="232.587" y="-263.3" font-family="Times,serif" font-size="14.00">picture :character varying</text>
<text text-anchor="start" x="232.587" y="-249.3" font-family="Times,serif" font-size="14.00">pokemon_id :integer</text>
<text text-anchor="start" x="232.587" y="-235.3" font-family="Times,serif" font-size="14.00">created_at :timestamp without time zone</text>
<text text-anchor="start" x="232.587" y="-221.3" font-family="Times,serif" font-size="14.00">updated_at :timestamp without time zone</text>
</g>
<!-- Pokemon&#45;&gt;Sighting -->
<g id="edge3" class="edge"><title>Pokemon&#45;&gt;Sighting</title>
<path fill="none" stroke="#199bd3" d="M348.45,-420.127C348.45,-394.929 348.45,-365.185 348.45,-339.023"/>
<ellipse fill="none" stroke="#199bd3" cx="348.45" cy="-424.397" rx="4" ry="4"/>
<polygon fill="#199bd3" stroke="#199bd3" points="348.45,-338.813 352.95,-328.813 348.45,-333.813 348.45,-328.813 348.45,-328.813 348.45,-328.813 348.45,-333.813 343.95,-328.813 348.45,-338.813 348.45,-338.813"/>
</g>
<!-- User -->
<g id="node5" class="node"><title>User</title>
<path fill="none" stroke="black" d="M501.815,-151.5C501.815,-151.5 797.084,-151.5 797.084,-151.5 803.084,-151.5 809.084,-157.5 809.084,-163.5 809.084,-163.5 809.084,-379.5 809.084,-379.5 809.084,-385.5 803.084,-391.5 797.084,-391.5 797.084,-391.5 501.815,-391.5 501.815,-391.5 495.815,-391.5 489.815,-385.5 489.815,-379.5 489.815,-379.5 489.815,-163.5 489.815,-163.5 489.815,-157.5 495.815,-151.5 501.815,-151.5"/>
<text text-anchor="middle" x="649.45" y="-376.3" font-family="Times,serif" font-size="14.00">User</text>
<polyline fill="none" stroke="black" points="489.815,-369.5 809.084,-369.5 "/>
<text text-anchor="start" x="497.815" y="-354.3" font-family="Times,serif" font-size="14.00">id :integer</text>
<text text-anchor="start" x="497.815" y="-340.3" font-family="Times,serif" font-size="14.00">email :character varying</text>
<text text-anchor="start" x="497.815" y="-326.3" font-family="Times,serif" font-size="14.00">encrypted_password :character varying</text>
<text text-anchor="start" x="497.815" y="-312.3" font-family="Times,serif" font-size="14.00">reset_password_token :character varying</text>
<text text-anchor="start" x="497.815" y="-298.3" font-family="Times,serif" font-size="14.00">reset_password_sent_at :timestamp without time zone</text>
<text text-anchor="start" x="497.815" y="-284.3" font-family="Times,serif" font-size="14.00">remember_created_at :timestamp without time zone</text>
<text text-anchor="start" x="497.815" y="-270.3" font-family="Times,serif" font-size="14.00">sign_in_count :integer</text>
<text text-anchor="start" x="497.815" y="-256.3" font-family="Times,serif" font-size="14.00">current_sign_in_at :timestamp without time zone</text>
<text text-anchor="start" x="497.815" y="-242.3" font-family="Times,serif" font-size="14.00">last_sign_in_at :timestamp without time zone</text>
<text text-anchor="start" x="497.815" y="-228.3" font-family="Times,serif" font-size="14.00">current_sign_in_ip :inet</text>
<text text-anchor="start" x="497.815" y="-214.3" font-family="Times,serif" font-size="14.00">last_sign_in_ip :inet</text>
<text text-anchor="start" x="497.815" y="-200.3" font-family="Times,serif" font-size="14.00">created_at :timestamp without time zone</text>
<text text-anchor="start" x="497.815" y="-186.3" font-family="Times,serif" font-size="14.00">updated_at :timestamp without time zone</text>
<text text-anchor="start" x="497.815" y="-172.3" font-family="Times,serif" font-size="14.00">role :integer</text>
<text text-anchor="start" x="497.815" y="-158.3" font-family="Times,serif" font-size="14.00">name :character varying</text>
</g>
<!-- Pokemon&#45;&gt;User -->
<g id="edge2" class="edge"><title>Pokemon&#45;&gt;User</title>
<path fill="none" stroke="#1e93d0" d="M434.824,-422.808C448.477,-413.956 462.479,-404.758 481.19,-392.148"/>
<polygon fill="#1e93d0" stroke="#1e93d0" points="434.61,-422.947 423.769,-424.597 430.411,-425.661 426.212,-428.376 426.212,-428.376 426.212,-428.376 430.411,-425.661 428.655,-432.155 434.61,-422.947 434.61,-422.947"/>
<polygon fill="#1e93d0" stroke="#1e93d0" points="481.224,-392.125 492.029,-390.255 485.367,-389.326 489.509,-386.526 489.509,-386.526 489.509,-386.526 485.367,-389.326 486.99,-382.798 481.224,-392.125 481.224,-392.125"/>
</g>
<!-- User&#45;&gt;PokeDesk -->
<g id="edge4" class="edge"><title>User&#45;&gt;PokeDesk</title>
<path fill="none" stroke="#aa14ec" d="M515.916,-145.79C507.02,-137.482 498.294,-129.332 489.965,-121.554"/>
<ellipse fill="none" stroke="#aa14ec" cx="519.092" cy="-148.756" rx="4.00002" ry="4.00002"/>
<polygon fill="#aa14ec" stroke="#aa14ec" points="489.743,-121.347 485.506,-111.232 486.089,-117.934 482.435,-114.521 482.435,-114.521 482.435,-114.521 486.089,-117.934 479.363,-117.81 489.743,-121.347 489.743,-121.347"/>
</g>
</g>
</svg>
