<?xml version="1.0" encoding="UTF-8" standalone="no"?>
<!DOCTYPE svg PUBLIC "-//W3C//DTD SVG 1.1//EN"
 "http://www.w3.org/Graphics/SVG/1.1/DTD/svg11.dtd">
<!-- Generated by graphviz version 2.38.0 (20140413.2041)
 -->
<!-- Title: models_diagram Pages: 1 -->
<svg width="611pt" height="523pt"
 viewBox="0.00 0.00 611.32 523.00" xmlns="http://www.w3.org/2000/svg" xmlns:xlink="http://www.w3.org/1999/xlink">
<g id="graph0" class="graph" transform="scale(1 1) rotate(0) translate(4 519)">
<title>models_diagram</title>
<polygon fill="none" stroke="none" points="-4,4 -4,-519 607.323,-519 607.323,4 -4,4"/>
<!-- _diagram_info -->
<g id="node1" class="node"><title>_diagram_info</title>
<text text-anchor="start" x="8" y="-486.6" font-family="Times,serif" font-size="13.00">Models diagram</text>
<text text-anchor="start" x="8" y="-473.6" font-family="Times,serif" font-size="13.00">Date: Jul 28 2016 &#45; 20:36</text>
<text text-anchor="start" x="8" y="-460.6" font-family="Times,serif" font-size="13.00">Migration version: 20160729012907</text>
<text text-anchor="start" x="8" y="-447.6" font-family="Times,serif" font-size="13.00">Generated by RailRoady 1.5.1</text>
<text text-anchor="start" x="8" y="-434.6" font-family="Times,serif" font-size="13.00">http://railroady.prestonlee.com</text>
</g>
<!-- PokeDesk -->
<g id="node2" class="node"><title>PokeDesk</title>
<path fill="none" stroke="black" d="M237.825,-0.5C237.825,-0.5 461.55,-0.5 461.55,-0.5 467.55,-0.5 473.55,-6.5 473.55,-12.5 473.55,-12.5 473.55,-102.5 473.55,-102.5 473.55,-108.5 467.55,-114.5 461.55,-114.5 461.55,-114.5 237.825,-114.5 237.825,-114.5 231.825,-114.5 225.825,-108.5 225.825,-102.5 225.825,-102.5 225.825,-12.5 225.825,-12.5 225.825,-6.5 231.825,-0.5 237.825,-0.5"/>
<text text-anchor="middle" x="349.688" y="-99.3" font-family="Times,serif" font-size="14.00">PokeDesk</text>
<polyline fill="none" stroke="black" points="225.825,-92.5 473.55,-92.5 "/>
<text text-anchor="start" x="233.825" y="-77.3" font-family="Times,serif" font-size="14.00">id :integer</text>
<text text-anchor="start" x="233.825" y="-63.3" font-family="Times,serif" font-size="14.00">user_id :integer</text>
<text text-anchor="start" x="233.825" y="-49.3" font-family="Times,serif" font-size="14.00">pokemon_id :integer</text>
<text text-anchor="start" x="233.825" y="-35.3" font-family="Times,serif" font-size="14.00">level :integer</text>
<text text-anchor="start" x="233.825" y="-21.3" font-family="Times,serif" font-size="14.00">created_at :timestamp without time zone</text>
<text text-anchor="start" x="233.825" y="-7.3" font-family="Times,serif" font-size="14.00">updated_at :timestamp without time zone</text>
</g>
<!-- Pokemon -->
<g id="node3" class="node"><title>Pokemon</title>
<path fill="none" stroke="black" d="M237.825,-414.5C237.825,-414.5 461.55,-414.5 461.55,-414.5 467.55,-414.5 473.55,-420.5 473.55,-426.5 473.55,-426.5 473.55,-502.5 473.55,-502.5 473.55,-508.5 467.55,-514.5 461.55,-514.5 461.55,-514.5 237.825,-514.5 237.825,-514.5 231.825,-514.5 225.825,-508.5 225.825,-502.5 225.825,-502.5 225.825,-426.5 225.825,-426.5 225.825,-420.5 231.825,-414.5 237.825,-414.5"/>
<text text-anchor="middle" x="349.688" y="-499.3" font-family="Times,serif" font-size="14.00">Pokemon</text>
<polyline fill="none" stroke="black" points="225.825,-492.5 473.55,-492.5 "/>
<text text-anchor="start" x="233.825" y="-477.3" font-family="Times,serif" font-size="14.00">id :integer</text>
<text text-anchor="start" x="233.825" y="-463.3" font-family="Times,serif" font-size="14.00">name :character varying</text>
<text text-anchor="start" x="233.825" y="-449.3" font-family="Times,serif" font-size="14.00">description :text</text>
<text text-anchor="start" x="233.825" y="-435.3" font-family="Times,serif" font-size="14.00">created_at :timestamp without time zone</text>
<text text-anchor="start" x="233.825" y="-421.3" font-family="Times,serif" font-size="14.00">updated_at :timestamp without time zone</text>
</g>
<!-- Pokemon&#45;&gt;PokeDesk -->
<g id="edge1" class="edge"><title>Pokemon&#45;&gt;PokeDesk</title>
<path fill="none" stroke="#5a9dbc" d="M291.134,-407.594C284.431,-398.377 278.606,-388.409 274.688,-378 239.144,-283.58 240.981,-246.092 274.688,-151 278.116,-141.328 283.035,-131.928 288.737,-123.06"/>
<ellipse fill="none" stroke="#5a9dbc" cx="293.728" cy="-410.989" rx="4.00002" ry="4.00002"/>
<polygon fill="#5a9dbc" stroke="#5a9dbc" points="288.785,-122.99 298.138,-117.265 291.603,-118.859 294.421,-114.729 294.421,-114.729 294.421,-114.729 291.603,-118.859 290.703,-112.193 288.785,-122.99 288.785,-122.99"/>
</g>
<!-- User -->
<g id="node4" class="node"><title>User</title>
<path fill="none" stroke="black" d="M296.053,-151.5C296.053,-151.5 591.323,-151.5 591.323,-151.5 597.323,-151.5 603.323,-157.5 603.323,-163.5 603.323,-163.5 603.323,-365.5 603.323,-365.5 603.323,-371.5 597.323,-377.5 591.323,-377.5 591.323,-377.5 296.053,-377.5 296.053,-377.5 290.053,-377.5 284.053,-371.5 284.053,-365.5 284.053,-365.5 284.053,-163.5 284.053,-163.5 284.053,-157.5 290.053,-151.5 296.053,-151.5"/>
<text text-anchor="middle" x="443.688" y="-362.3" font-family="Times,serif" font-size="14.00">User</text>
<polyline fill="none" stroke="black" points="284.053,-355.5 603.323,-355.5 "/>
<text text-anchor="start" x="292.053" y="-340.3" font-family="Times,serif" font-size="14.00">id :integer</text>
<text text-anchor="start" x="292.053" y="-326.3" font-family="Times,serif" font-size="14.00">email :character varying</text>
<text text-anchor="start" x="292.053" y="-312.3" font-family="Times,serif" font-size="14.00">encrypted_password :character varying</text>
<text text-anchor="start" x="292.053" y="-298.3" font-family="Times,serif" font-size="14.00">reset_password_token :character varying</text>
<text text-anchor="start" x="292.053" y="-284.3" font-family="Times,serif" font-size="14.00">reset_password_sent_at :timestamp without time zone</text>
<text text-anchor="start" x="292.053" y="-270.3" font-family="Times,serif" font-size="14.00">remember_created_at :timestamp without time zone</text>
<text text-anchor="start" x="292.053" y="-256.3" font-family="Times,serif" font-size="14.00">sign_in_count :integer</text>
<text text-anchor="start" x="292.053" y="-242.3" font-family="Times,serif" font-size="14.00">current_sign_in_at :timestamp without time zone</text>
<text text-anchor="start" x="292.053" y="-228.3" font-family="Times,serif" font-size="14.00">last_sign_in_at :timestamp without time zone</text>
<text text-anchor="start" x="292.053" y="-214.3" font-family="Times,serif" font-size="14.00">current_sign_in_ip :inet</text>
<text text-anchor="start" x="292.053" y="-200.3" font-family="Times,serif" font-size="14.00">last_sign_in_ip :inet</text>
<text text-anchor="start" x="292.053" y="-186.3" font-family="Times,serif" font-size="14.00">created_at :timestamp without time zone</text>
<text text-anchor="start" x="292.053" y="-172.3" font-family="Times,serif" font-size="14.00">updated_at :timestamp without time zone</text>
<text text-anchor="start" x="292.053" y="-158.3" font-family="Times,serif" font-size="14.00">role :integer</text>
</g>
<!-- Pokemon&#45;&gt;User -->
<g id="edge2" class="edge"><title>Pokemon&#45;&gt;User</title>
<path fill="none" stroke="#6ad736" d="M377.445,-405.033C380.233,-399.16 383.13,-393.058 386.086,-386.83"/>
<polygon fill="#6ad736" stroke="#6ad736" points="377.333,-405.268 368.979,-412.372 375.189,-409.785 373.044,-414.302 373.044,-414.302 373.044,-414.302 375.189,-409.785 377.11,-416.232 377.333,-405.268 377.333,-405.268"/>
<polygon fill="#6ad736" stroke="#6ad736" points="386.166,-386.664 394.519,-379.56 388.31,-382.147 390.454,-377.63 390.454,-377.63 390.454,-377.63 388.31,-382.147 386.389,-375.7 386.166,-386.664 386.166,-386.664"/>
</g>
<!-- User&#45;&gt;PokeDesk -->
<g id="edge3" class="edge"><title>User&#45;&gt;PokeDesk</title>
<path fill="none" stroke="#e5de01" d="M388.885,-143.983C385.76,-137.168 382.683,-130.457 379.71,-123.973"/>
<ellipse fill="none" stroke="#e5de01" cx="390.62" cy="-147.767" rx="4.00002" ry="4.00002"/>
<polygon fill="#e5de01" stroke="#e5de01" points="379.604,-123.743 379.526,-112.777 377.52,-119.198 375.436,-114.653 375.436,-114.653 375.436,-114.653 377.52,-119.198 371.345,-116.528 379.604,-123.743 379.604,-123.743"/>
</g>
</g>
</svg>
