<?xml version="1.0" encoding="UTF-8" standalone="no"?>
<!DOCTYPE svg PUBLIC "-//W3C//DTD SVG 1.1//EN"
 "http://www.w3.org/Graphics/SVG/1.1/DTD/svg11.dtd">
<!-- Generated by graphviz version 2.38.0 (20140413.2041)
 -->
<!-- Title: models_diagram Pages: 1 -->
<svg width="388pt" height="225pt"
 viewBox="0.00 0.00 388.45 225.00" xmlns="http://www.w3.org/2000/svg" xmlns:xlink="http://www.w3.org/1999/xlink">
<g id="graph0" class="graph" transform="scale(1 1) rotate(0) translate(4 221)">
<title>models_diagram</title>
<polygon fill="none" stroke="none" points="-4,4 -4,-221 384.45,-221 384.45,4 -4,4"/>
<!-- _diagram_info -->
<g id="node1" class="node"><title>_diagram_info</title>
<text text-anchor="start" x="8" y="-202.6" font-family="Times,serif" font-size="13.00">Models diagram</text>
<text text-anchor="start" x="8" y="-189.6" font-family="Times,serif" font-size="13.00">Date: Jul 31 2016 &#45; 18:35</text>
<text text-anchor="start" x="8" y="-176.6" font-family="Times,serif" font-size="13.00">Migration version: 20160731011201</text>
<text text-anchor="start" x="8" y="-163.6" font-family="Times,serif" font-size="13.00">Generated by RailRoady 1.5.1</text>
<text text-anchor="start" x="8" y="-150.6" font-family="Times,serif" font-size="13.00">http://railroady.prestonlee.com</text>
</g>
<!-- PokeDesk -->
<g id="node2" class="node"><title>PokeDesk</title>
<ellipse fill="none" stroke="black" cx="276.45" cy="-18" rx="45.9373" ry="18"/>
<text text-anchor="middle" x="276.45" y="-13.8" font-family="Times,serif" font-size="14.00">PokeDesk</text>
</g>
<!-- Pokemon -->
<g id="node3" class="node"><title>Pokemon</title>
<ellipse fill="none" stroke="black" cx="268.45" cy="-180.5" rx="43.5319" ry="18"/>
<text text-anchor="middle" x="268.45" y="-176.3" font-family="Times,serif" font-size="14.00">Pokemon</text>
</g>
<!-- Pokemon&#45;&gt;PokeDesk -->
<g id="edge1" class="edge"><title>Pokemon&#45;&gt;PokeDesk</title>
<path fill="none" stroke="#46ae6b" d="M246.844,-157.513C228.306,-135.853 206.476,-101.779 219.45,-72 224.901,-59.488 234.923,-48.5991 245.061,-40"/>
<ellipse fill="none" stroke="#46ae6b" cx="249.545" cy="-160.556" rx="4.00002" ry="4.00002"/>
<polygon fill="#46ae6b" stroke="#46ae6b" points="245.292,-39.8168 255.925,-37.1349 249.212,-36.7121 253.131,-33.6075 253.131,-33.6075 253.131,-33.6075 249.212,-36.7121 250.337,-30.08 245.292,-39.8168 245.292,-39.8168"/>
</g>
<!-- Sighting -->
<g id="node4" class="node"><title>Sighting</title>
<ellipse fill="none" stroke="black" cx="268.45" cy="-90" rx="40.1663" ry="18"/>
<text text-anchor="middle" x="268.45" y="-85.8" font-family="Times,serif" font-size="14.00">Sighting</text>
</g>
<!-- Pokemon&#45;&gt;Sighting -->
<g id="edge3" class="edge"><title>Pokemon&#45;&gt;Sighting</title>
<path fill="none" stroke="#414b17" d="M268.45,-154.189C268.45,-142.971 268.45,-129.752 268.45,-118.311"/>
<ellipse fill="none" stroke="#414b17" cx="268.45" cy="-158.436" rx="4" ry="4"/>
<polygon fill="#414b17" stroke="#414b17" points="268.45,-118.011 272.95,-108.011 268.45,-113.011 268.45,-108.011 268.45,-108.011 268.45,-108.011 268.45,-113.011 263.95,-108.011 268.45,-118.011 268.45,-118.011"/>
</g>
<!-- User -->
<g id="node5" class="node"><title>User</title>
<ellipse fill="none" stroke="black" cx="353.45" cy="-90" rx="27" ry="18"/>
<text text-anchor="middle" x="353.45" y="-85.8" font-family="Times,serif" font-size="14.00">User</text>
</g>
<!-- Pokemon&#45;&gt;User -->
<g id="edge2" class="edge"><title>Pokemon&#45;&gt;User</title>
<path fill="none" stroke="#22892c" d="M291.165,-155.849C303.985,-142.501 319.898,-125.933 332.43,-112.885"/>
<polygon fill="#22892c" stroke="#22892c" points="290.967,-156.055 280.794,-160.151 287.504,-159.662 284.04,-163.268 284.04,-163.268 284.04,-163.268 287.504,-159.662 287.286,-166.385 290.967,-156.055 290.967,-156.055"/>
<polygon fill="#22892c" stroke="#22892c" points="332.442,-112.873 342.615,-108.778 335.905,-109.267 339.369,-105.661 339.369,-105.661 339.369,-105.661 335.905,-109.267 336.123,-102.543 332.442,-112.873 332.442,-112.873"/>
</g>
<!-- User&#45;&gt;PokeDesk -->
<g id="edge4" class="edge"><title>User&#45;&gt;PokeDesk</title>
<path fill="none" stroke="#e8025c" d="M331.877,-69.3887C322.412,-60.7842 311.243,-50.6303 301.42,-41.7003"/>
<ellipse fill="none" stroke="#e8025c" cx="334.908" cy="-72.1437" rx="4.00002" ry="4.00002"/>
<polygon fill="#e8025c" stroke="#e8025c" points="301.289,-41.5808 296.916,-31.5243 297.589,-38.2174 293.889,-34.854 293.889,-34.854 293.889,-34.854 297.589,-38.2174 290.862,-38.1838 301.289,-41.5808 301.289,-41.5808"/>
</g>
</g>
</svg>
